<?xml version="1.0" encoding="UTF-8"?>
<svg id="Capa_1" data-name="Capa 1" xmlns="http://www.w3.org/2000/svg" version="1.1" xmlns:xlink="http://www.w3.org/1999/xlink" viewBox="0 0 386 389.33">
  <defs>
    <style>
      .cls-1 {
        stroke-width: 1.21px;
      }

      .cls-1, .cls-2, .cls-3, .cls-4, .cls-5, .cls-6, .cls-7, .cls-8 {
        stroke: #000;
      }

      .cls-1, .cls-2, .cls-3, .cls-4, .cls-5, .cls-6, .cls-7, .cls-8, .cls-9 {
        stroke-miterlimit: 10;
      }

      .cls-1, .cls-2, .cls-8 {
        fill: #000;
      }

      .cls-3, .cls-10, .cls-6, .cls-7 {
        fill: #fff;
      }

      .cls-11, .cls-12, .cls-13, .cls-14, .cls-10 {
        stroke-width: 0px;
      }

      .cls-11, .cls-5 {
        fill: #fff1df;
      }

      .cls-4 {
        fill: none;
      }

      .cls-12 {
        fill: #9f6700;
      }

      .cls-13 {
        fill: #ffd58a;
      }

      .cls-14 {
        fill: #ad8c79;
      }

      .cls-6 {
        stroke-width: .48px;
      }

      .cls-7 {
        stroke-width: .65px;
      }

      .cls-8 {
        stroke-width: 1.2px;
      }

      .cls-9 {
        fill: url(#Orquídea);
        stroke: #fff;
        stroke-width: 6.68px;
      }
    </style>
    <linearGradient id="Orquídea" x1="4.9" y1="193.46" x2="382.72" y2="193.46" gradientUnits="userSpaceOnUse">
      <stop offset="0" stop-color="#ff7bac"/>
      <stop offset=".22" stop-color="rgba(255, 123, 172, .76)" stop-opacity=".76"/>
      <stop offset=".6" stop-color="rgba(255, 123, 172, .36)" stop-opacity=".36"/>
      <stop offset=".87" stop-color="rgba(255, 123, 172, .1)" stop-opacity=".1"/>
      <stop offset="1" stop-color="#ff7bac" stop-opacity="0"/>
    </linearGradient>
  </defs>
  <circle class="cls-9" cx="193.81" cy="193.46" r="188.91"/>
  <path class="cls-12" d="M139.16,44.41h-16.18c-2.02,0-4,.57-5.7,1.66-8.59,5.5-19.02,13.39-29.32,24.43-11.76,12.59-19.55,25.23-24.68,35.35-1.71,3.37-1.46,7.41.62,10.57,5.21,7.95,5.94,15.52,11.15,23.47,4.7,7.17,13.89,14.73,18.59,21.9,1.61,2.46,2.13,5.47,1.44,8.33-1.58,6.5-3.17,13-4.75,19.5-.73,3.01-.11,6.2,1.7,8.71h0c3.4,4.72,9.97,5.83,14.73,2.47l6.66-4.7c2.69-1.9,4.35-4.93,4.49-8.22l3.71-87.31c.09-2.07.78-4.07,1.99-5.75l24.17-33.61c5.05-7.02.03-16.81-8.62-16.81Z"/>
  <path class="cls-12" d="M268.41,44.41h16.18c2.02,0,4,.57,5.7,1.66,8.59,5.5,19.02,13.39,29.32,24.43,11.76,12.59,19.55,25.23,24.68,35.35,1.71,3.37,1.46,7.41-.62,10.57-5.21,7.95-5.94,15.52-11.15,23.47-4.7,7.17-13.89,14.73-18.59,21.9-1.61,2.46-2.13,5.47-1.44,8.33,1.58,6.5,3.17,13,4.75,19.5.73,3.01.11,6.2-1.7,8.71h0c-3.4,4.72-9.97,5.83-14.73,2.47l-6.66-4.7c-2.69-1.9-4.35-4.93-4.49-8.22l-3.71-87.31c-.09-2.07-.78-4.07-1.99-5.75l-24.17-33.61c-5.05-7.02-.03-16.81,8.62-16.81Z"/>
  <path class="cls-13" d="M134.27,193.91l-11.56,45.96-32.3,66.87-7.29,35.41c10.1,8.08,26.56,18.69,48.94,26.5,23.05,8.04,45.29,10.37,58.39,10.22,14.99.79,35.93-1.75,62.11-9.75,21.73-6.64,37.69-17.25,49.02-24.92-.88-3.25-1.01-5.38-1.89-8.63l-1.87-12.49-51.54-107.04c-9.88,5.33-18.43,9.44-25.07,12.47-8.27,3.77-12.01,5.15-16.8,4.9-8.8-.45-15.05-6.07-17.31-8-8.24-7.03-20.09-19.63-52.85-31.51Z"/>
  <path class="cls-3" d="M220.46,250.04"/>
  <path class="cls-11" d="M227.37,230.12l2.77,19.79c.96,3.96,3.71,7.26,7.43,8.91,2.85,1.26,6.14,1.07,8.82-.52l7.04-4.18c10.68-6.34,17.36-17.71,17.7-30.12l.52-19.25c.09-3.23.75-6.43,1.95-9.43l6.66-16.62c2.87-7.16,4.43-14.77,4.63-22.48l.98-38.8c.39-15.34-3.73-30.46-11.83-43.49l-8.9-14.31c-5.4-8.67-14.4-14.46-24.53-15.77l-4.47-.58c-1.64-.21-3.3-.24-4.95-.08l-22.63,2.18c-3.78.36-7.58.36-11.36-.01l-24.32-2.39c-.85-.08-1.71-.1-2.57-.05l-5.55.35c-11.24.7-21.29,7.22-26.51,17.2l-9.84,18.79c-6.21,11.87-9.1,25.2-8.36,38.57l2.47,44.4c.43,7.65,2.63,15.1,6.44,21.75l3.06,5.35c3.03,5.29,4.86,11.18,5.36,17.25l.85,10.28c.62,7.52,2.91,14.81,6.71,21.33h0c4.55,7.82,11.82,13.69,20.43,16.48l.49.16c7.86,2.55,16.48-.11,21.54-6.64l.62-.81c1.54-1.99,2.49-4.38,2.73-6.88,1.38-4.21,2.75-9.78,3.2-16.43.33-4.95.07-9.33-.39-12.93"/>
  <path class="cls-3" d="M193.81,247.54"/>
  <path class="cls-10" d="M54.19,312.32"/>
  <path class="cls-14" d="M123.5,169.67c-1.76-10.02-.62-20.01-.23-25.87.76-11.58,3.81-26.02,3.79-26.03,0,0-.01.01-.02.03,0,.02,0,.03,0,.03.02.02,8.08-16.49,19.33-25.36,4.62-3.64,12.05-7.79,24.03-9.1,1.49-.27,6.16-.9,10.86,1.77,2.62,1.48,4.23,3.42,5.11,4.67,1.19,1.62,3.58,5.32,4.22,10.67.64,5.32-.78,9.47-1.56,11.33-2.44,2.33-5.12,5.2-7.78,8.67-3.08,4.01-5.39,7.87-7.13,11.21-5.16,8.52-10.34,17.89-15.32,28.13-9.43,19.41-16.08,37.74-20.85,54.01-1.99-8.16-.65-10.02-2.64-18.18-2.12-3.34-4.31-7.22-6.39-11.65-2.42-5.18-4.17-10.03-5.45-14.31Z"/>
  <path class="cls-14" d="M282.9,169.31c.22-.63.39-1.29.5-1.95,1.6-9.59,1.29-17.83,1.33-23.5.18-23-2.85-26.08-2.83-26.08,0,0,.01.01.02.03,0,.02,0,.03,0,.03-.02.02-8.08-16.49-19.33-25.36-4.62-3.64-12.05-7.79-24.03-9.1-1.49-.27-6.16-.9-10.86,1.77-2.62,1.48-4.23,3.42-5.11,4.67-1.19,1.62-3.58,5.32-4.22,10.67-.64,5.32.78,9.47,1.56,11.33,2.44,2.33,5.12,5.2,7.78,8.67,3.08,4.01,5.39,7.87,7.13,11.21,5.16,8.52,10.34,17.89,15.32,28.13,9.43,19.41,16.08,37.74,20.85,54.01.93-12.14.58-14.63,4.08-22.13l7.83-22.38Z"/>
  <ellipse class="cls-10" cx="158.25" cy="115.52" rx="17.78" ry="13.99" transform="translate(-21.98 38.67) rotate(-13.03)"/>
  <path class="cls-1" d="M168.07,104.95l-2.89-1.49c-5.45-2.81-12.12-1.47-16.07,3.22l-2.15,2.55c-4.67,5.55-2.98,13.99,3.46,17.32l1.83.95c5.19,2.68,11.54,1.61,15.56-2.63l3.08-3.25c4.85-5.11,3.44-13.45-2.83-16.67Z"/>
  <ellipse class="cls-10" cx="255.49" cy="114.39" rx="13.99" ry="17.78" transform="translate(86.42 337.5) rotate(-76.97)"/>
  <path class="cls-8" d="M246.61,104.02l2.85-1.47c5.37-2.76,11.94-1.45,15.83,3.17l2.12,2.51c4.6,5.46,2.94,13.78-3.4,17.06l-1.8.93c-5.12,2.64-11.36,1.59-15.33-2.59l-3.04-3.2c-4.78-5.03-3.39-13.24,2.78-16.42Z"/>
  <path class="cls-2" d="M203.43,164.5v.07c.41,3.52-1.12,6.99-3.99,9.06l-1.33.96c-3.81,2.74-8.94,2.7-12.71-.09l-4.53-3.36c-2.85-2.11-4.04-5.8-2.96-9.18l.42-1.31c1.76-5.51,6.16-9.76,11.72-11.33l14.07-3.96c3.58-1.01,7.39-.88,10.89.38l14.58,5.22c3.51,1.26,6.33,3.95,7.75,7.4l.55,1.33c2.01,4.89.76,10.51-3.13,14.08l-1.12,1.03c-2.95,2.71-7.36,3.06-10.7.86l-1.62-1.07c-3.05-2.01-4.35-5.84-3.14-9.29l.36-1.04-3.02,4.27c-1.03,1.46-.68,3.47.77,4.5l6.59,4.69c3.35,2.38,7.91,2.09,10.92-.7l1.79-1.66c1.42-1.32,3.7-.04,3.31,1.86l-.69,3.41c-.86,4.3-3.69,7.95-7.64,9.87l-6.47,3.13c-9.12,4.42-19.78,4.3-28.8-.31l-6.61-3.38c-2.82-1.44-5.09-3.77-6.47-6.63l-2.92-6.04c-.63-1.3.88-2.59,2.07-1.77l.95.66c5.57,3.85,13.02,3.58,18.29-.67l4.49-3.61c1.15-.92,1.42-2.56.62-3.81l-2.3-3.6Z"/>
  <path class="cls-5" d="M210.46,197.4v9.5l-10.29,3.21c-8.38,2.61-17.51.21-23.53-6.17l-6.16-6.53"/>
  <path class="cls-5" d="M210.46,206.9l5.9,2.3c8.95,3.49,19.13.38,24.59-7.53h0"/>
  <path class="cls-4" d="M195.48,210.83"/>
  <path class="cls-4" d="M225.37,209.71"/>
  <path class="cls-4" d="M228.88,244.72"/>
  <path class="cls-11" d="M192.88,228.39c1,1.12,7.15,7.78,17.31,8,9.77.21,16.05-5.68,17.18-6.78"/>
  <path class="cls-10" d="M226.45,226.08c-.46-5.37-.69-10.47-.75-15.25"/>
  <path class="cls-10" d="M228.88,244.72"/>
  <path class="cls-11" d="M234.15,211.15c.19,2.16.6,9.73-4.5,16.43-7.52,9.87-20.27,8.97-22.1,8.81-1.18-.1-11.42-1.15-17.32-8.56-2.62-3.29-5.1-8.75-8.59-16.4-.24-.54-.44-.98-.57-1.27,3.22.55,6.56,1.03,10,1.42,15.94,1.79,30.49,1.22,43.08-.43Z"/>
  <circle class="cls-3" cx="248.51" cy="111.66" r="4.64"/>
  <circle class="cls-3" cx="154.43" cy="111.66" r="4.64"/>
  <circle class="cls-6" cx="186.09" cy="154.91" r="1.89"/>
  <path class="cls-7" d="M180.29,162.63c.98.62,1.41-1.07,2.62-3s1.77-2.58.79-3.2-2.24-.54-3.46,1.39-.94,4.2.04,4.81Z"/>
</svg>